<svg width="17" height="17" viewBox="0 0 17 17" fill="none" xmlns="http://www.w3.org/2000/svg">
<g id="phone">
<rect width="16.632" height="16.632" transform="translate(0.280029 0.264008)" fill="white"/>
<path id="Vector" d="M14.6642 4.00296L12.9344 2.27479C12.8123 2.15224 12.6673 2.05499 12.5076 1.98866C12.3479 1.92232 12.1766 1.88819 12.0037 1.88823C11.6512 1.88823 11.3199 2.02629 11.0714 2.27479L9.21003 4.13615C9.08748 4.25817 8.99023 4.4032 8.9239 4.56292C8.85756 4.72263 8.82343 4.89388 8.82347 5.06683C8.82347 5.41928 8.96153 5.75062 9.21003 5.99913L10.5711 7.36022C10.2525 8.06247 9.80957 8.70132 9.26363 9.24594C8.71907 9.7932 8.08027 10.2378 7.37791 10.5583L6.01682 9.19721C5.8948 9.07466 5.74976 8.97742 5.59005 8.91108C5.43033 8.84474 5.25909 8.81061 5.08614 8.81065C4.73369 8.81065 4.40235 8.94871 4.15384 9.19721L2.29086 11.0569C2.16815 11.1792 2.07083 11.3245 2.00449 11.4845C1.93814 11.6445 1.9041 11.816 1.9043 11.9892C1.9043 12.3417 2.04236 12.673 2.29086 12.9215L4.01741 14.6481C4.41372 15.046 4.96108 15.2718 5.52306 15.2718C5.64162 15.2718 5.75532 15.262 5.86739 15.2426C8.05684 14.882 10.2284 13.7174 11.981 11.9665C13.7319 10.2172 14.8948 8.04727 15.2602 5.85132C15.3707 5.18052 15.1482 4.49023 14.6642 4.00296Z" fill="#8C8C8C"/>
</g>
</svg>
